<svg xmlns="http://www.w3.org/2000/svg" viewBox="0 0 845.99 176.83"><defs><style>.a{stroke:#1d1d1b;stroke-miterlimit:10;}.b{font-size:160px;font-family:BodoniMT, Bodoni MT;}.c{letter-spacing:-0.04em;}.d{letter-spacing:-0.02em;}</style></defs><path class="a" d="M1.28,84.19V58.34L105.08,5s5.63-1.46,8.54,4.59V28.75L30,70.23l83.58,42.52v20a8.41,8.41,0,0,1-9.17,4Z" transform="translate(-0.78 1.96)"/><path class="a" d="M846.27,87.63V61.79L742.46,8.43S736.84,7,733.92,13V32.19L817.5,73.67l-83.58,42.52v20a8.42,8.42,0,0,0,9.17,4Z" transform="translate(-0.78 1.96)"/><path class="a" d="M652.08,136,705.22,1.72,719.49,1s4.7-.45,5.11,5.33L669.37,145.9s-2.46,3.43-6.66,1Z" transform="translate(-0.78 1.96)"/><text class="b" transform="translate(117.63 132.38)"><tspan class="c">V</tspan><tspan x="107.34" y="0">iniD</tspan><tspan class="d" x="402.34" y="0">e</tspan><tspan x="467.58" y="0">v</tspan></text></svg>