<svg xmlns="http://www.w3.org/2000/svg" viewBox="0 0 329.72 108.54"><defs><style>.a,.b{fill:#fff;stroke:#fff;stroke-miterlimit:10;}.b{font-size:97.3px;font-family:BodoniMT, Bodoni MT;}</style></defs><path class="a" d="M1.21,52V36.09l64-32.92A4.66,4.66,0,0,1,70.52,6V17.83L19,43.42,70.52,69.65V82a5.2,5.2,0,0,1-5.66,2.44Z" transform="translate(-0.71 3.78)"/><path class="a" d="M329.93,54.16V38.21l-64-32.92a4.67,4.67,0,0,0-5.28,2.83V20l51.57,25.59L260.61,71.78V84.12a5.2,5.2,0,0,0,5.66,2.45Z" transform="translate(-0.71 3.78)"/><path class="a" d="M210.12,84,242.91,1.16l8.8-.45s2.9-.28,3.16,3.29L220.79,90.11a3,3,0,0,1-4.11.59Z" transform="translate(-0.71 3.78)"/><text class="b" transform="translate(75.11 81)">VD</text></svg>